<svg xmlns="http://www.w3.org/2000/svg" width="66.804" height="118.017" viewBox="0 0 66.804 118.017">
  <g id="Bamboo_Icon" data-name="Bamboo Icon" transform="translate(-406.561 -351.29)">
    <path id="Path_195" data-name="Path 195" d="M437.053,387.257a1.959,1.959,0,0,1-2,2.3h-3.532a1.959,1.959,0,0,1-2-2.3,136.1,136.1,0,0,0,0-33.669,1.959,1.959,0,0,1,2-2.3h3.532a1.959,1.959,0,0,1,2,2.3A136.1,136.1,0,0,0,437.053,387.257Z" transform="translate(1.463 0)" fill="#db3130"/>
    <path id="Path_196" data-name="Path 196" d="M437.053,424.737a1.959,1.959,0,0,1-2,2.3h-3.532a1.959,1.959,0,0,1-2-2.3,136.1,136.1,0,0,0,0-33.669,1.959,1.959,0,0,1,2-2.3h3.532a1.959,1.959,0,0,1,2,2.3A136.1,136.1,0,0,0,437.053,424.737Z" transform="translate(1.463 2.391)" fill="#db3130"/>
    <path id="Path_197" data-name="Path 197" d="M437.053,462.227a1.959,1.959,0,0,1-2,2.3h-3.532a1.959,1.959,0,0,1-2-2.3,136.1,136.1,0,0,0,0-33.669,1.959,1.959,0,0,1,2-2.3h3.532a1.955,1.955,0,0,1,2,2.3A136.1,136.1,0,0,0,437.053,462.227Z" transform="translate(1.463 4.782)" fill="#db3130"/>
    <path id="Path_198" data-name="Path 198" d="M429.374,386.635a10.506,10.506,0,0,0-.234-1.032,14.806,14.806,0,0,0-.479-1.5,19.1,19.1,0,0,0-.8-1.787,18.354,18.354,0,0,0-1.117-1.936A23.351,23.351,0,0,0,425.3,378.4a50.994,50.994,0,0,0-3.649-3.84,56.307,56.307,0,0,0-7.776-6.308c-.585-.383-1.128-.723-1.617-1.011s-.936-.532-1.3-.734c-.745-.383-1.191-.585-1.191-.585a.584.584,0,0,0-.777.734s.17.457.5,1.234c.181.372.394.83.638,1.351s.564,1.074.9,1.681a56.027,56.027,0,0,0,5.744,8.191,51.1,51.1,0,0,0,3.574,3.9,22.78,22.78,0,0,0,1.872,1.585,18.44,18.44,0,0,0,1.862,1.255c.6.362,1.191.66,1.723.915a13.864,13.864,0,0,0,1.457.585,8.756,8.756,0,0,0,1.011.308,3.491,3.491,0,0,0,.383.085h.138a.7.7,0,0,0,.638-.734A1.613,1.613,0,0,0,429.374,386.635Z" transform="translate(0.153 0.93)" fill="#db3130"/>
    <path id="Path_199" data-name="Path 199" d="M429.591,388.86a7.908,7.908,0,0,0-.66-.543,10.927,10.927,0,0,0-1.042-.713c-.4-.245-.872-.5-1.383-.745a14.356,14.356,0,0,0-1.67-.681,16.4,16.4,0,0,0-1.894-.543,42.045,42.045,0,0,0-4.213-.66,44.575,44.575,0,0,0-8.053-.191c-.564.043-1.074.1-1.532.149s-.862.128-1.191.17c-.66.117-1.043.213-1.043.213a.445.445,0,0,0-.277.2.476.476,0,0,0,.138.649s.33.213.925.543c.3.149.66.34,1.074.543s.883.415,1.4.628a45.489,45.489,0,0,0,7.691,2.394,39.1,39.1,0,0,0,4.2.723,18.04,18.04,0,0,0,1.979.085,15.963,15.963,0,0,0,1.8-.117,14.22,14.22,0,0,0,1.553-.266,9.476,9.476,0,0,0,1.213-.351,7.4,7.4,0,0,0,.8-.3,2.6,2.6,0,0,0,.287-.128l.1-.064a.553.553,0,0,0,.043-.777,2.4,2.4,0,0,0-.223-.213Z" transform="translate(0 2.13)" fill="#db3130"/>
    <path id="Path_200" data-name="Path 200" d="M429.374,424.635a10.506,10.506,0,0,0-.234-1.032,14.806,14.806,0,0,0-.479-1.5,19.1,19.1,0,0,0-.8-1.787,18.354,18.354,0,0,0-1.117-1.936A23.351,23.351,0,0,0,425.3,416.4a50.982,50.982,0,0,0-3.649-3.84,56.3,56.3,0,0,0-7.776-6.308c-.585-.383-1.128-.723-1.617-1.011s-.936-.532-1.3-.734c-.745-.383-1.191-.585-1.191-.585a.584.584,0,0,0-.777.734s.17.457.5,1.234c.181.372.394.83.638,1.351s.564,1.074.9,1.681a56.024,56.024,0,0,0,5.744,8.191,51.1,51.1,0,0,0,3.574,3.9,22.756,22.756,0,0,0,1.872,1.585,18.43,18.43,0,0,0,1.862,1.255c.6.362,1.191.66,1.723.915a13.851,13.851,0,0,0,1.457.585,8.756,8.756,0,0,0,1.011.308,3.491,3.491,0,0,0,.383.085h.138a.7.7,0,0,0,.638-.734A1.613,1.613,0,0,0,429.374,424.635Z" transform="translate(0.153 3.354)" fill="#db3130"/>
    <path id="Path_201" data-name="Path 201" d="M429.591,426.86a7.9,7.9,0,0,0-.66-.543,10.938,10.938,0,0,0-1.042-.713c-.4-.245-.872-.5-1.383-.745a14.356,14.356,0,0,0-1.67-.681,16.4,16.4,0,0,0-1.894-.543,42.062,42.062,0,0,0-4.213-.66,44.575,44.575,0,0,0-8.053-.191c-.564.043-1.074.1-1.532.149s-.862.128-1.191.17c-.66.117-1.043.213-1.043.213a.445.445,0,0,0-.277.2.476.476,0,0,0,.138.649s.33.213.925.543c.3.149.66.34,1.074.543s.883.415,1.4.628a45.5,45.5,0,0,0,7.691,2.393,39.1,39.1,0,0,0,4.2.723,18.04,18.04,0,0,0,1.979.085,15.949,15.949,0,0,0,1.8-.117,14.235,14.235,0,0,0,1.553-.266,9.475,9.475,0,0,0,1.213-.351,7.411,7.411,0,0,0,.8-.3,2.594,2.594,0,0,0,.287-.128l.1-.064a.553.553,0,0,0,.043-.777,2.4,2.4,0,0,0-.223-.213Z" transform="translate(0 4.554)" fill="#db3130"/>
    <path id="Path_202" data-name="Path 202" d="M447.785,405.565a10.536,10.536,0,0,1,.234-1.032,14.823,14.823,0,0,1,.479-1.5,18.835,18.835,0,0,1,.787-1.787,18.331,18.331,0,0,1,1.117-1.936,23.3,23.3,0,0,1,1.447-1.979,50.992,50.992,0,0,1,3.649-3.84,56.306,56.306,0,0,1,7.776-6.308c.585-.383,1.128-.723,1.617-1.011s.936-.532,1.3-.734c.745-.383,1.191-.585,1.191-.585a.584.584,0,0,1,.776.734s-.17.457-.5,1.234c-.181.372-.394.83-.638,1.351s-.564,1.074-.9,1.681a56.024,56.024,0,0,1-5.745,8.191,51.1,51.1,0,0,1-3.574,3.9,22.8,22.8,0,0,1-1.872,1.585,18.43,18.43,0,0,1-1.862,1.255c-.606.362-1.191.66-1.723.915a13.855,13.855,0,0,1-1.457.585,8.744,8.744,0,0,1-1.011.308,3.5,3.5,0,0,1-.383.085h-.138a.689.689,0,0,1-.638-.734,1.615,1.615,0,0,1,.064-.383Z" transform="translate(2.625 2.138)" fill="#db3130"/>
    <path id="Path_203" data-name="Path 203" d="M447.733,407.79a7.888,7.888,0,0,1,.659-.543,10.948,10.948,0,0,1,1.043-.713c.4-.245.872-.5,1.383-.745a14.347,14.347,0,0,1,1.67-.681,16.409,16.409,0,0,1,1.894-.543,42.03,42.03,0,0,1,4.213-.659,44.564,44.564,0,0,1,8.053-.192c.553.043,1.074.1,1.532.149s.862.128,1.191.17c.659.117,1.042.213,1.042.213a.472.472,0,0,1,.138.851s-.33.213-.926.543c-.3.149-.66.34-1.074.543s-.883.415-1.4.628a45.493,45.493,0,0,1-7.691,2.393,38.636,38.636,0,0,1-4.2.723,18.01,18.01,0,0,1-1.979.085,15.95,15.95,0,0,1-1.8-.117,14.238,14.238,0,0,1-1.553-.266,9.474,9.474,0,0,1-1.213-.351,7.4,7.4,0,0,1-.8-.3c-.181-.074-.287-.128-.287-.128l-.1-.064a.553.553,0,0,1-.043-.777,1.991,1.991,0,0,1,.234-.213Z" transform="translate(2.602 3.338)" fill="#db3130"/>
    <path id="Path_204" data-name="Path 204" d="M447.785,443.565a10.54,10.54,0,0,1,.234-1.032,14.823,14.823,0,0,1,.479-1.5,18.856,18.856,0,0,1,.787-1.787,18.344,18.344,0,0,1,1.117-1.936,23.324,23.324,0,0,1,1.447-1.979,51.016,51.016,0,0,1,3.649-3.84,56.31,56.31,0,0,1,7.776-6.308c.585-.383,1.128-.723,1.617-1.011s.936-.532,1.3-.734c.745-.383,1.191-.585,1.191-.585a.584.584,0,0,1,.776.734s-.17.457-.5,1.234c-.181.372-.394.83-.638,1.351s-.564,1.074-.9,1.681a56.031,56.031,0,0,1-5.745,8.191,51.1,51.1,0,0,1-3.574,3.9,22.8,22.8,0,0,1-1.872,1.585,18.441,18.441,0,0,1-1.862,1.255c-.606.362-1.191.659-1.723.915a13.868,13.868,0,0,1-1.457.585,8.744,8.744,0,0,1-1.011.308,3.5,3.5,0,0,1-.383.085h-.138a.69.69,0,0,1-.638-.734,1.616,1.616,0,0,1,.064-.383Z" transform="translate(2.625 4.562)" fill="#db3130"/>
    <path id="Path_205" data-name="Path 205" d="M447.733,445.79a7.875,7.875,0,0,1,.659-.543,10.936,10.936,0,0,1,1.043-.713c.4-.245.872-.5,1.383-.745a14.347,14.347,0,0,1,1.67-.681,16.409,16.409,0,0,1,1.894-.543,42.065,42.065,0,0,1,4.213-.66,44.569,44.569,0,0,1,8.053-.191c.553.043,1.074.1,1.532.149s.862.128,1.191.17c.659.117,1.042.213,1.042.213a.472.472,0,0,1,.138.851s-.33.213-.926.543c-.3.149-.66.34-1.074.543s-.883.415-1.4.628a45.5,45.5,0,0,1-7.691,2.393,38.65,38.65,0,0,1-4.2.723,18.011,18.011,0,0,1-1.979.085,15.95,15.95,0,0,1-1.8-.117,14.238,14.238,0,0,1-1.553-.266,9.484,9.484,0,0,1-1.213-.351,7.416,7.416,0,0,1-.8-.3c-.181-.074-.287-.128-.287-.128l-.1-.064a.553.553,0,0,1-.043-.777,1.994,1.994,0,0,1,.234-.213Z" transform="translate(2.602 5.762)" fill="#db3130"/>
    <path id="Path_206" data-name="Path 206" d="M441.321,446.154h3.532a1.959,1.959,0,0,0,2-2.3,136.1,136.1,0,0,1,0-33.669,1.959,1.959,0,0,0-2-2.3h-3.532a1.959,1.959,0,0,0-2,2.3,136.1,136.1,0,0,1,0,33.669A1.959,1.959,0,0,0,441.321,446.154Z" transform="translate(2.088 3.61)" fill="#db3130"/>
    <path id="Path_207" data-name="Path 207" d="M444.853,445.19h-3.532a1.955,1.955,0,0,0-2,2.3,135.927,135.927,0,0,1,1.032,15.829h5.468a135.9,135.9,0,0,1,1.032-15.829A1.959,1.959,0,0,0,444.853,445.19Z" transform="translate(2.088 5.99)" fill="#db3130"/>
    <path id="Path_208" data-name="Path 208" d="M439.321,368.119a1.959,1.959,0,0,0,2,2.3h3.532a1.959,1.959,0,0,0,2-2.3,134.993,134.993,0,0,1-1.043-16.829h-5.436a136.926,136.926,0,0,1-1.042,16.829Z" transform="translate(2.088 0)" fill="#db3130"/>
    <path id="Path_209" data-name="Path 209" d="M444.853,370.6h-3.532a1.959,1.959,0,0,0-2,2.3,136.1,136.1,0,0,1,0,33.669,1.959,1.959,0,0,0,2,2.3h3.532a1.959,1.959,0,0,0,2-2.3,136.1,136.1,0,0,1,0-33.669A1.959,1.959,0,0,0,444.853,370.6Z" transform="translate(2.088 1.232)" fill="#db3130"/>
  </g>
</svg>
