<svg xmlns="http://www.w3.org/2000/svg" width="113.092" height="113.092" viewBox="0 0 113.092 113.092">
  <path id="Border_Icon" data-name="Border Icon" d="M346.124,486.1V471.961h-28.3V457.806H303.674v-10.7h14.141v-17.6h-17.6v14.141H289.532V429.51H275.378v-28.3H261.236V376.48H257.78V489.572H370.872v-3.456H346.137Zm-42.451-53.136h10.685v10.685H303.674Zm0,28.3h10.7v10.7h-10.7Zm-3.456-14.155v24.853H289.532V457.806H275.378v-10.7h24.84Zm-14.141,24.853h-10.7v-10.7h10.7Zm0-38.994v10.685h-10.7V432.967Zm-24.84-28.3h10.685v24.84H261.236Zm10.685,28.3v10.685H261.236V432.967Zm-10.685,14.141h10.7v10.7h-10.7Zm24.84,38.994h-24.84v-24.84h10.7V475.4h14.141Zm3.456,0V475.4h10.685v10.7Zm14.141,0V475.4h10.7v10.7Zm38.994,0h-24.84V475.4h24.84Z" transform="translate(-257.78 -376.48)" fill="#f7c56b"/>
</svg>
