<svg xmlns="http://www.w3.org/2000/svg" width="113.646" height="113.646" viewBox="0 0 113.646 113.646">
  <path id="Border_Icon" data-name="Border Icon" d="M331.742,378.581v7a11.949,11.949,0,0,0,11.952,11.952h25.948v14.986H343.193a11.448,11.448,0,0,0-11.45,11.45h0a11.448,11.448,0,0,0,11.45,11.45h7.493v7.493a11.45,11.45,0,1,0,22.9,0V416.467h14.986v25.948a11.949,11.949,0,0,0,11.952,11.952h7v33.889h3.958V454.367h0V412.51h0v-37.9H297.84v3.957h33.889Zm6.292,12.651a7.879,7.879,0,0,1-1.768-2.7h33.375v5.039H343.694a7.977,7.977,0,0,1-5.646-2.335Zm54.4,21.291a20.934,20.934,0,0,0-18.851-18.851v-5.066A25.354,25.354,0,0,1,397.5,412.523ZM343.18,431.466a7.493,7.493,0,1,1,0-14.986h7.493v14.986Zm26.449,11.45a7.493,7.493,0,1,1-14.986,0v-7.493h14.986Zm0-11.45H354.643V416.48h14.986Zm3.957-33.81a16.906,16.906,0,0,1,14.867,14.867H373.586V397.656Zm18.943,44.772V416.48h5.039v33.375a8.076,8.076,0,0,1-2.7-1.768,7.945,7.945,0,0,1-2.335-5.646Zm9,7.994V416.48h5.989v33.942Zm5.989-71.842v33.942h-6.029a29.437,29.437,0,0,0-27.913-27.914v-6.029Zm-37.9,5.989H335.673v-5.989h33.942Z" transform="translate(-297.84 -374.61)" fill="#f7c56b"/>
</svg>
