<svg xmlns="http://www.w3.org/2000/svg" width="57.408" height="57.408" viewBox="0 0 57.408 57.408">
  <g id="Group_231" data-name="Group 231" transform="translate(-41.15 -269.602)">
    <path id="Path_111" data-name="Path 111" d="M45.69,269.67a4.961,4.961,0,0,0-4.47,4.48c-.64,4.88,3.91,12.77,18.76,19.13a10.954,10.954,0,0,1,1.45-2.17L51.03,280.7a.857.857,0,0,1,0-1.22.845.845,0,0,1,1.21,0l10.4,10.4a11.069,11.069,0,0,1,2.18-1.46c-6.36-14.85-14.24-19.4-19.13-18.76Zm4.26,8.73a.869.869,0,0,1-1.22,0l-1.53-1.53a.863.863,0,0,1,1.22-1.22l1.53,1.53A.857.857,0,0,1,49.95,278.4Z" fill="#fff"/>
    <path id="Path_112" data-name="Path 112" d="M45.69,326.95c4.88.62,12.77-3.92,19.12-18.76a11,11,0,0,1-2.17-1.46l-10.4,10.41a.863.863,0,1,1-1.22-1.22l10.4-10.41a10.536,10.536,0,0,1-1.45-2.17c-14.85,6.36-19.41,14.25-18.76,19.13A4.971,4.971,0,0,0,45.69,326.95Zm1.5-7.19,1.54-1.54a.863.863,0,0,1,1.22,1.22l-1.54,1.54a.863.863,0,0,1-1.22-1.22Z" fill="#fff"/>
    <path id="Path_114" data-name="Path 114" d="M69.85,294.63a3.675,3.675,0,1,0,3.68,3.68A3.681,3.681,0,0,0,69.85,294.63Z" fill="#fff"/>
    <path id="Path_115" data-name="Path 115" d="M94.02,269.66c-4.88-.62-12.77,3.92-19.13,18.77a10.581,10.581,0,0,1,2.17,1.46l10.4-10.4a.863.863,0,0,1,1.22,1.22l-10.4,10.4a10.784,10.784,0,0,1,1.46,2.18c14.84-6.37,19.4-14.25,18.76-19.14a4.971,4.971,0,0,0-4.48-4.48Zm-1.51,7.21-1.53,1.53a.863.863,0,1,1-1.22-1.22l1.53-1.53a.863.863,0,0,1,1.22,1.22Z" fill="#fff"/>
    <path id="Path_116" data-name="Path 116" d="M79.23,298.31a9.309,9.309,0,0,0-2.75-6.63h0a9.549,9.549,0,0,0-2.92-1.98l-.13-.05a9.37,9.37,0,0,0-12.18,4.94l-.06.15a9.381,9.381,0,0,0,0,7.16,9.352,9.352,0,0,0,15.28,3.04h0a9.309,9.309,0,0,0,2.74-6.62Zm-9.38,5.39a5.4,5.4,0,1,1,5.4-5.39A5.4,5.4,0,0,1,69.85,303.7Z" fill="#fff"/>
    <path id="Path_118" data-name="Path 118" d="M94.02,326.95a4.952,4.952,0,0,0,4.47-4.48c.64-4.88-3.92-12.77-18.77-19.13a10.954,10.954,0,0,1-1.45,2.17l10.4,10.4a.863.863,0,0,1-1.22,1.22l-10.4-10.4a10.783,10.783,0,0,1-2.18,1.46c6.37,14.84,14.26,19.41,19.14,18.76Zm-4.26-8.74a.875.875,0,0,1,1.22,0l1.53,1.54a.875.875,0,0,1,0,1.22.869.869,0,0,1-1.22,0l-1.53-1.54A.875.875,0,0,1,89.76,318.21Z" fill="#fff"/>
  </g>
</svg>
