<svg xmlns="http://www.w3.org/2000/svg" width="153.108" height="121.532" viewBox="0 0 153.108 121.532">
  <path id="Cloud_Icon" data-name="Cloud Icon" d="M412.31,314.23a16.641,16.641,0,0,0,3.5-5.31c1.43-3.44,1.42-7.29,1.4-11.01,9.05,3.34,20.31-1.64,23.93-10.58a4.693,4.693,0,0,1,.77-1.45c.74-.81,1.96-.91,3.03-1.16a8.7,8.7,0,0,0,6.2-5.73c3.03-9.56-12.74-17.63-17.79-8.47-1.29,2.34-1.79,5.14-3.49,7.2a10.987,10.987,0,0,1-4.65,3.08,20.266,20.266,0,0,1-10.43,1.11c-2.68-.42-5.43-1.51-6.98-3.73s-1.38-5.76.9-7.22a12.422,12.422,0,0,0,15.04,5.9c16.6-6.34,4.09-29.97-6.8-35.04-9.59-4.46-23.04-.16-26.24,9.93-1.37-6.95-2.82-14.1-6.75-20-5.77-8.65-16.73-11.24-26.38-8.02a27.389,27.389,0,0,0-13.99,10.83c-1.03,1.58-6.85,16.49-5.94,16.52a24.043,24.043,0,0,1,11.33,2.88,13.44,13.44,0,0,1,6.74,9.22,7.5,7.5,0,0,1,8.75,11.35,8.711,8.711,0,0,0-13.2-7.49c-.98-4.72-2.25-9.9-6.22-12.63-10.56-7.25-25.73,2.99-27.96,13.98-11.78,3.17-23.22,14.18-16.83,27.19,3.32,6.76,11.01,10.92,18.54,10.64,4.78-.18,11.57-1.96,14.06-6.46,2.68-4.85.32-12.6-5.09-14.29-3.83-1.2-8.61,1.45-8.99,5.44a5.147,5.147,0,0,1-.97-5.78,8.583,8.583,0,0,1,4.5-4.15c5.66-2.51,13.51.33,15.03,6.34,1.48,5.88-.75,10.28,4.81,14.43,3.11,2.32,8.07,3.16,11.83,3,12.09-.51,25.34-16.48,36.32-7.57a25.567,25.567,0,0,0-9.6-10.64c8.43.66,17,7.9,17.42,16.76.42,8.96-8.36,11.46-16.32,12.15a169.184,169.184,0,0,0-28.6,4.99c-3.29.87-6.63,1.88-9.37,3.9s-4.8,5.27-4.53,8.67c.26,3.28,2.64,6.1,5.51,7.7a25.274,25.274,0,0,0,9.47,2.53,104.355,104.355,0,0,0,18.87.46,78.342,78.342,0,0,1-21.11-5.86c-2.73-1.19-5.79-3.16-5.71-6.14.08-2.9,3.12-4.71,5.85-5.69,14.61-5.24,47.55,1.08,60.15-11.81Z" transform="translate(-298.416 -222.397)" fill="#f7c56b"/>
</svg>
