<svg xmlns="http://www.w3.org/2000/svg" width="20.177" height="20.177" viewBox="0 0 20.177 20.177">
  <g id="Icon_Asset" data-name="Icon Asset" transform="translate(-329.54 -265.06)">
    <g id="Group_67" data-name="Group 67" transform="translate(329.54 265.06)">
      <path id="Path_121" data-name="Path 121" d="M349.914,275.149a5.043,5.043,0,0,1,5.044-5.044,5.044,5.044,0,0,0-10.089,0A5.043,5.043,0,0,1,349.914,275.149Z" transform="translate(-339.826 -265.06)" fill="#db3130"/>
      <path id="Path_122" data-name="Path 122" d="M339.629,285.434a5.043,5.043,0,0,1-5.044-5.044,5.044,5.044,0,1,0,0,10.089A5.043,5.043,0,0,1,339.629,285.434Z" transform="translate(-329.54 -275.346)" fill="#db3130"/>
      <path id="Path_123" data-name="Path 123" d="M349.914,295.72a5.045,5.045,0,0,1-5.044,5.044,5.044,5.044,0,0,0,10.089,0A5.043,5.043,0,0,1,349.914,295.72Z" transform="translate(-339.826 -285.631)" fill="#db3130"/>
      <path id="Path_124" data-name="Path 124" d="M365.244,280.38a5.045,5.045,0,0,1-5.044,5.044,5.043,5.043,0,0,1,5.044,5.044,5.044,5.044,0,0,0,0-10.089Z" transform="translate(-350.112 -275.339)" fill="#db3130"/>
    </g>
    <path id="Path_125" data-name="Path 125" d="M358.822,275.974l-.411-1.589a.595.595,0,1,1,1.152-.3.614.614,0,0,1,0,.3l-.411,1.589a.17.17,0,0,1-.329,0Z" transform="translate(-19.358 -5.758)" fill="#ffe8d1"/>
    <path id="Path_126" data-name="Path 126" d="M340.448,294.673l-1.589.411a.595.595,0,1,1-.3-1.152.615.615,0,0,1,.3,0l1.589.411a.17.17,0,0,1,0,.329Z" transform="translate(-5.751 -19.36)" fill="#ffe8d1"/>
    <path id="Path_127" data-name="Path 127" d="M359.146,310.434l.411,1.589a.6.6,0,0,1-1.155.3.614.614,0,0,1,0-.3l.411-1.589a.169.169,0,0,1,.207-.122.175.175,0,0,1,.122.122Z" transform="translate(-19.353 -30.356)" fill="#ffe8d1"/>
    <path id="Path_128" data-name="Path 128" d="M374.924,294.342l1.589-.411a.595.595,0,0,1,.3,1.152.614.614,0,0,1-.3,0l-1.589-.411a.17.17,0,0,1,0-.329Z" transform="translate(-30.363 -19.358)" fill="#ffe8d1"/>
  </g>
</svg>
