<svg id="Group_116" data-name="Group 116" xmlns="http://www.w3.org/2000/svg" width="22.214" height="22.214" viewBox="0 0 22.214 22.214">
  <path id="Path_111" data-name="Path 111" d="M42.469,269.622a1.432,1.432,0,0,0-1.29,1.293c-.185,1.409,1.129,3.686,5.415,5.522a3.162,3.162,0,0,1,.419-.626l-3-3a.247.247,0,0,1,0-.352.244.244,0,0,1,.349,0l3,3a3.194,3.194,0,0,1,.629-.421c-1.836-4.286-4.11-5.6-5.522-5.415Zm1.23,2.52a.251.251,0,0,1-.352,0L42.9,271.7a.249.249,0,0,1,.352-.352l.442.442A.247.247,0,0,1,43.7,272.141Z" transform="translate(-38.333 -266.781)" fill="#db3130"/>
  <path id="Path_112" data-name="Path 112" d="M42.461,310.155c1.409.179,3.686-1.131,5.519-5.415a3.173,3.173,0,0,1-.626-.421l-3,3a.249.249,0,0,1-.352-.352l3-3a3.042,3.042,0,0,1-.419-.626c-4.286,1.836-5.6,4.113-5.415,5.522A1.435,1.435,0,0,0,42.461,310.155Zm.433-2.075.445-.445a.249.249,0,1,1,.352.352l-.445.444a.249.249,0,0,1-.352-.352Z" transform="translate(-38.324 -290.781)" fill="#db3130"/>
  <path id="Path_113" data-name="Path 113" d="M31.692,294.194c.866,1.129,3.406,1.8,7.733.072a3.2,3.2,0,0,1-.147-.736H35.032a.248.248,0,1,1,0-.5h4.246a3.225,3.225,0,0,1,.147-.739c-4.327-1.729-6.87-1.056-7.736.072a1.433,1.433,0,0,0,0,1.827Zm1.775-1.16h.626a.248.248,0,1,1,0,.5h-.626a.248.248,0,1,1,0-.5Z" transform="translate(-31.36 -282.175)" fill="#db3130"/>
  <path id="Path_114" data-name="Path 114" d="M67.239,294.63a1.061,1.061,0,1,0,1.062,1.062A1.062,1.062,0,0,0,67.239,294.63Z" transform="translate(-56.13 -284.585)" fill="#db3130"/>
  <path id="Path_115" data-name="Path 115" d="M80.412,269.621c-1.409-.179-3.686,1.131-5.522,5.418a3.055,3.055,0,0,1,.626.421l3-3a.249.249,0,1,1,.352.352l-3,3a3.113,3.113,0,0,1,.421.629c4.283-1.839,5.6-4.113,5.415-5.525a1.435,1.435,0,0,0-1.293-1.293Zm-.436,2.081-.442.442a.249.249,0,0,1-.352-.352l.442-.442a.249.249,0,0,1,.352.352Z" transform="translate(-62.325 -266.784)" fill="#db3130"/>
  <path id="Path_116" data-name="Path 116" d="M65.892,291.645a2.687,2.687,0,0,0-.794-1.914h0a2.756,2.756,0,0,0-.843-.572l-.038-.014a2.7,2.7,0,0,0-3.516,1.426l-.017.043a2.708,2.708,0,0,0,0,2.067,2.7,2.7,0,0,0,4.41.877h0a2.687,2.687,0,0,0,.791-1.911ZM63.185,293.2a1.557,1.557,0,1,1,1.559-1.556A1.558,1.558,0,0,1,63.185,293.2Z" transform="translate(-52.075 -280.539)" fill="#db3130"/>
  <path id="Path_117" data-name="Path 117" d="M65.741,260.159a1.433,1.433,0,0,0-1.827,0c-1.129.866-1.8,3.406-.072,7.733a3.229,3.229,0,0,1,.736-.144V263.5a.248.248,0,0,1,.5,0v4.246a3.226,3.226,0,0,1,.739.147c1.732-4.33,1.056-6.87-.072-7.736Zm-.667,2.4a.248.248,0,0,1-.5,0v-.623a.248.248,0,0,1,.5,0Z" transform="translate(-53.716 -259.83)" fill="#db3130"/>
  <path id="Path_118" data-name="Path 118" d="M80.4,310.155a1.429,1.429,0,0,0,1.29-1.293c.185-1.409-1.131-3.686-5.418-5.522a3.162,3.162,0,0,1-.419.626l3,3a.249.249,0,0,1-.352.352l-3-3a3.111,3.111,0,0,1-.629.421c1.839,4.283,4.116,5.6,5.525,5.415Zm-1.23-2.523a.253.253,0,0,1,.352,0l.442.445a.253.253,0,0,1,0,.352.251.251,0,0,1-.352,0l-.442-.444A.253.253,0,0,1,79.168,307.632Z" transform="translate(-62.311 -290.781)" fill="#db3130"/>
  <path id="Path_119" data-name="Path 119" d="M63.9,316.586a1.433,1.433,0,0,0,1.827,0c1.129-.863,1.8-3.406.075-7.733a3.19,3.19,0,0,1-.739.144v4.246a.248.248,0,0,1-.5,0V309a3.28,3.28,0,0,1-.742-.147C62.1,313.171,62.774,315.72,63.9,316.586Zm.664-2.4a.248.248,0,0,1,.5,0v.626a.248.248,0,0,1-.5,0Z" transform="translate(-53.708 -294.701)" fill="#db3130"/>
  <path id="Path_120" data-name="Path 120" d="M88.126,292.372c-.866-1.129-3.406-1.8-7.733-.075a3.191,3.191,0,0,1,.144.739h4.246a.248.248,0,0,1,0,.5H80.537a3.079,3.079,0,0,1-.147.739c4.327,1.729,6.87,1.054,7.733-.075a1.433,1.433,0,0,0,0-1.827Zm-1.781,1.16h-.623a.248.248,0,1,1,0-.5h.623a.248.248,0,1,1,0,.5Z" transform="translate(-66.238 -282.178)" fill="#db3130"/>
</svg>
