<svg xmlns="http://www.w3.org/2000/svg" width="85.32" height="37.05" viewBox="0 0 85.32 37.05">
  <path id="Path_273" data-name="Path 273" d="M416.67,460.77V437.88l10.07-10.07-4.85-4.85,3.55-3.55,3.77,3.77,5.07-5.07-5.07-5.07-3.77,3.77-3.55-3.55,4.85-4.85-10.07-10.07V375.45h-1.83v22.89l-10.07,10.07.65.65,4.2,4.2-3.55,3.55-3.77-3.77-5.07,5.07.65.65,4.42,4.42,3.77-3.77,3.55,3.55-4.85,4.85.65.65,9.42,9.42v22.89h1.83Zm15.02-42.65-2.47,2.47-2.47-2.47,2.47-2.47Zm-7.54,0-3.55,3.55-3.55-3.55,3.55-3.55Zm-4.85,4.85-3.55,3.55-3.55-3.55,3.55-3.55Zm-3.55-6.14-3.55-3.55,3.55-3.55,3.55,3.55Zm-8.4-8.4,8.4-8.4,8.4,8.4-3.55,3.55-4.85-4.85-4.85,4.85Zm-7.54,9.69,2.47-2.47,2.47,2.47-2.47,2.47Zm7.54,0,3.55-3.55,3.55,3.55-3.55,3.55Zm0,9.69,3.55-3.55,4.85,4.85,4.85-4.85,3.55,3.55-8.4,8.4Z" transform="translate(460.77 -397.23) rotate(90)" fill="#f7c56b"/>
</svg>
