<svg xmlns="http://www.w3.org/2000/svg" width="63.094" height="61.449" viewBox="0 0 63.094 61.449">
  <g id="Leaf_Type_2" data-name="Leaf Type 2" transform="translate(-178.496 -32.03)">
    <path id="Path_3" data-name="Path 3" d="M185.194,71.5l18.288-5.939a3.315,3.315,0,0,0,1.754-5.42l-11.3-15.563a14.639,14.639,0,0,0-8.742,26.912Z" transform="translate(0 -0.25)" fill="#db3130"/>
    <path id="Path_4" data-name="Path 4" d="M207.56,58.472a3.315,3.315,0,0,0,5.694,0l11.3-15.563a14.644,14.644,0,0,0-28.3,0l11.31,15.563Z" transform="translate(-0.354)" fill="#db3130"/>
    <path id="Path_5" data-name="Path 5" d="M226.883,44.59l-11.31,15.563a3.32,3.32,0,0,0,1.754,5.42l18.288,5.939A14.639,14.639,0,0,0,226.874,44.6Z" transform="translate(-0.724 -0.25)" fill="#db3130"/>
    <path id="Path_6" data-name="Path 6" d="M216.536,68.335a3.314,3.314,0,0,0-4.606,3.342V90.916a14.638,14.638,0,0,0,22.894-16.631l-18.288-5.939Z" transform="translate(-0.667 -0.72)" fill="#db3130"/>
    <path id="Path_7" data-name="Path 7" d="M208.974,71.677a3.313,3.313,0,0,0-4.606-3.342L186.08,74.284a14.638,14.638,0,0,0,22.894,16.631V71.687Z" transform="translate(-0.132 -0.72)" fill="#db3130"/>
  </g>
</svg>
