<svg xmlns="http://www.w3.org/2000/svg" width="125.859" height="122.583" viewBox="0 0 125.859 122.583">
  <path id="Leaf_Icon" data-name="Leaf Icon" d="M224.353,76.716A29.252,29.252,0,0,0,191.76,56.91a29.246,29.246,0,0,0-57.834,0,29.242,29.242,0,0,0-17.87,55,29.237,29.237,0,0,0,46.768,34,29.237,29.237,0,0,0,46.768-34,29.263,29.263,0,0,0,14.722-35.193Zm-52.809,4.145a2.216,2.216,0,0,1,.606-.841l4.986-4.34a.853.853,0,0,1,1.173.078.825.825,0,0,1,.137.86l-2.6,6.081a2.339,2.339,0,0,1-4.3-1.838ZM147.69,75.543a.806.806,0,0,1,.86.137l4.986,4.34a2.342,2.342,0,0,1-3.07,3.539,2.106,2.106,0,0,1-.606-.841l-2.6-6.081a.8.8,0,0,1,.43-1.075Zm-9.659,29.034a.811.811,0,0,1,.391-.782l5.67-3.4a2.337,2.337,0,0,1,2.4,4.008,2.06,2.06,0,0,1-1,.313l-6.589.587a.83.83,0,0,1-.9-.743Zm27.1,11.105-1.466,6.433a.832.832,0,0,1-1,.626.849.849,0,0,1-.626-.626l-1.466-6.433a2.336,2.336,0,1,1,4.556,0Zm22.426-10.753a.811.811,0,0,1-.782.391l-6.589-.587a2.33,2.33,0,0,1-2.112-2.542,2.359,2.359,0,0,1,2.542-2.131,2.509,2.509,0,0,1,1,.332l5.67,3.4a.83.83,0,0,1,.293,1.134Zm7.821-16.384a3.705,3.705,0,0,1-4.751,2.229,4.031,4.031,0,0,1-.821-.411,3.74,3.74,0,0,0-1.271-.489,4.011,4.011,0,0,0-1.29-.039,12.717,12.717,0,0,0-1.525.45c-2.209.7-5.142,1.721-8.055,2.776-2.894,1.095-5.787,2.229-7.938,3.187-.254.117-.508.215-.743.313V96.7a6.119,6.119,0,0,1-1.271,3.7q.205.323.411.7c1.173,2.033,2.835,4.653,4.536,7.234,1.721,2.581,3.519,5.123,4.888,7a11.972,11.972,0,0,0,.978,1.271,3.6,3.6,0,0,0,1.056.743,3.725,3.725,0,0,0,1.33.352,3.686,3.686,0,0,1,3.578,3.832,3.707,3.707,0,1,1-7.41-.235,3.329,3.329,0,0,1,.137-.9,3.718,3.718,0,0,0,.078-1.369,3.413,3.413,0,0,0-.371-1.232,11.27,11.27,0,0,0-.9-1.31c-1.369-1.877-3.226-4.36-5.142-6.8-1.936-2.424-3.91-4.829-5.494-6.569-.2-.215-.371-.411-.547-.606a6.117,6.117,0,0,1-1.994.371,5.836,5.836,0,0,1-2.014-.371c-.176.2-.352.391-.547.606-1.564,1.74-3.539,4.145-5.474,6.569-1.916,2.444-3.773,4.927-5.142,6.824a11.278,11.278,0,0,0-.9,1.31,3.531,3.531,0,0,0-.371,1.232,3.718,3.718,0,0,0,.078,1.369,3.713,3.713,0,1,1-4.595-2.542,3.582,3.582,0,0,1,.9-.137,3.725,3.725,0,0,0,1.33-.352,3.268,3.268,0,0,0,1.056-.743,10.234,10.234,0,0,0,.958-1.271c1.369-1.877,3.167-4.419,4.888-7,1.7-2.6,3.382-5.22,4.556-7.234l.411-.7a6.076,6.076,0,0,1-1.271-3.7V96.6c-.235-.1-.469-.215-.723-.313-2.131-.958-5.025-2.092-7.938-3.187-2.913-1.075-5.846-2.072-8.055-2.776a12.714,12.714,0,0,0-1.525-.45,3.535,3.535,0,0,0-1.29.02,3.739,3.739,0,0,0-1.29.489,3.717,3.717,0,1,1,1-5.162,3.587,3.587,0,0,1,.411.821,3.827,3.827,0,0,0,.743,1.154,3.357,3.357,0,0,0,1.036.782,10.308,10.308,0,0,0,1.505.528c2.209.723,5.181,1.642,8.153,2.483,2.991.821,6,1.6,8.29,2.092.274.059.528.117.782.176a6.14,6.14,0,0,1,3.265-2.346c.02-.254.059-.528.078-.821.254-2.327.43-5.435.587-8.525.117-3.109.156-6.2.156-8.544a10.3,10.3,0,0,0-.039-1.584,3.818,3.818,0,0,0-.43-1.232,3.448,3.448,0,0,0-.88-1.056,3.726,3.726,0,0,1-.645-5.22,3.706,3.706,0,1,1,5.846,4.556,4.029,4.029,0,0,1-.645.645,3.922,3.922,0,0,0-.86,1.056,3.513,3.513,0,0,0-.43,1.232A10.3,10.3,0,0,0,163.762,73c0,2.327.039,5.435.156,8.544.156,3.109.332,6.2.587,8.525.02.293.059.547.078.821a6.214,6.214,0,0,1,3.265,2.346c.254-.059.508-.117.782-.176,2.288-.489,5.3-1.271,8.29-2.092,2.991-.841,5.944-1.76,8.173-2.5a11.2,11.2,0,0,0,1.505-.528,3.608,3.608,0,0,0,1.036-.782A3.827,3.827,0,0,0,188.377,86a3.711,3.711,0,1,1,6.98,2.522Z" transform="translate(-99.894 -32.04)" fill="#db3130"/>
</svg>
