<svg id="Ribbon" xmlns="http://www.w3.org/2000/svg" width="123.57" height="209.22" viewBox="0 0 123.57 209.22">
  <g id="Group_196" data-name="Group 196">
    <rect id="Rectangle_52" data-name="Rectangle 52" width="9.26" height="31.71" transform="translate(47.258 57.738) rotate(-45)" fill="#f7c56b"/>
    <path id="Path_216" data-name="Path 216" d="M33.68,42.41a15.617,15.617,0,0,0,3.46,5.21h0l1.08,1.08,6.55-6.55-1.08-1.08h0a6.588,6.588,0,0,1-1.43-2.14h0a6.475,6.475,0,0,1-.47-2.42h0v-.03h0v-.03h0a6.462,6.462,0,0,1,.47-2.41h0a6.334,6.334,0,0,1,1.43-2.14h0a6.588,6.588,0,0,1,2.14-1.43h0a6.443,6.443,0,0,1,2.45-.48,6.629,6.629,0,0,1,2.45.47h0a6.334,6.334,0,0,1,2.14,1.43h0l1.33,1.33L69.68,48.7l6.55-6.55L60.75,26.67l-1.28-1.28-.05-.05a15.717,15.717,0,0,0-5.21-3.46h0a15.864,15.864,0,0,0-11.86,0h0a15.617,15.617,0,0,0-5.21,3.46h0a15.819,15.819,0,0,0-3.46,5.21h0a15.864,15.864,0,0,0,0,11.86h0Z" fill="#f7c56b"/>
    <path id="Path_217" data-name="Path 217" d="M77.85,56.01l.25-.25c.73-.74,1.43-1.43,2.07-2.07,1.42-1.41,2.58-2.56,3.4-3.34h0q.42-.405.69-.66l.04-.04.06-.02.12-.05,1.94-1.94a15.819,15.819,0,0,0,3.46-5.21h0a15.864,15.864,0,0,0,0-11.86h0a15.617,15.617,0,0,0-3.46-5.21h0a15.819,15.819,0,0,0-5.21-3.46h0a15.864,15.864,0,0,0-11.86,0h0a15.617,15.617,0,0,0-5.21,3.46h0l-1.08,1.08,6.55,6.55,1.08-1.08h0a6.588,6.588,0,0,1,2.14-1.43h0A6.443,6.443,0,0,1,75.28,30a6.629,6.629,0,0,1,2.45.47h0a6.334,6.334,0,0,1,2.14,1.43h0a6.524,6.524,0,0,1,1.43,2.15h0a6.443,6.443,0,0,1,.48,2.45,6.629,6.629,0,0,1-.47,2.45h0a6.334,6.334,0,0,1-1.43,2.14h0l-1.1,1.1h-.01c-.14.13-.26.23-.38.33h0c-.27.24-.56.51-.92.86h0c-.63.6-1.44,1.39-2.42,2.37C72.16,48.61,67.79,53,62.87,57.96l6.58,6.52.11-.11.05.05c1.22-1.23,3.23-3.27,5-5.07,1.46-1.48,2.74-2.79,3.25-3.32h0Z" fill="#f7c56b"/>
    <path id="Path_218" data-name="Path 218" d="M86.42,83.61l.25-.25-.25.25-1.08-1.08-6.55,6.55,1.08,1.08A6.588,6.588,0,0,1,81.3,92.3a6.443,6.443,0,0,1,.48,2.45,6.629,6.629,0,0,1-.47,2.45h0a6.334,6.334,0,0,1-1.43,2.14h0a6.588,6.588,0,0,1-2.14,1.43,6.493,6.493,0,0,1-4.9,0,6.334,6.334,0,0,1-2.14-1.43l-1.33-1.33L53.89,82.53l-6.55,6.55,15.48,15.48,1.33,1.33A15.754,15.754,0,1,0,86.43,83.61Z" fill="#f7c56b"/>
    <rect id="Rectangle_53" data-name="Rectangle 53" width="30.4" height="9.26" transform="translate(63.016 89.201) rotate(-45)" fill="#f7c56b"/>
    <path id="Path_219" data-name="Path 219" d="M60.7,73.3l-6.58-6.52-.11.11-.05-.05c-1.22,1.23-3.23,3.27-5,5.07-1.47,1.49-2.75,2.8-3.26,3.32h0l-.25.25c-.73.74-1.43,1.43-2.07,2.07-1.42,1.41-2.58,2.56-3.4,3.34q-.42.4-.69.66l-.04.04-.06.02-.12.05L37.13,83.6a15.754,15.754,0,1,0,22.28,22.28l1.08-1.08-6.55-6.55-1.08,1.08-.25-.25.25.25a6.588,6.588,0,0,1-2.14,1.43,6.493,6.493,0,0,1-4.9,0,6.334,6.334,0,0,1-2.14-1.43h0a6.429,6.429,0,0,1-1.9-4.57h0v-.02h0v-.03h0a6.462,6.462,0,0,1,.47-2.41,6.334,6.334,0,0,1,1.43-2.14l1.1-1.1h.01c.14-.13.26-.23.38-.33h0c.27-.24.56-.51.92-.86.63-.6,1.44-1.39,2.42-2.37,2.89-2.86,7.26-7.25,12.18-12.21Z" fill="#f7c56b"/>
    <path id="Path_220" data-name="Path 220" d="M122.41,60.62l.33-.13-.33.13a15.617,15.617,0,0,0-3.46-5.21h0a15.8,15.8,0,0,0-17.07-3.46,15.617,15.617,0,0,0-5.21,3.46h0l-1.33,1.33-1.99,1.99,6.55,6.55,1.99-1.99,1.33-1.33a6.45,6.45,0,0,1,4.59-1.91,6.48,6.48,0,0,1,2.45.48h0a6.334,6.334,0,0,1,2.14,1.43h0a6.691,6.691,0,0,1,.84,1.02,6.317,6.317,0,0,1,.59,1.12l-.04-.11.04.11h0a6.622,6.622,0,0,1,.47,2.32h0v.12h0a6.629,6.629,0,0,1-.47,2.45h0a6.334,6.334,0,0,1-1.43,2.14h0a6.588,6.588,0,0,1-2.14,1.43,6.556,6.556,0,0,1-4.9-.01,6.334,6.334,0,0,1-2.14-1.43h0l-1.11-1.11h-.01l-.05-.07c-.15-.17-.27-.31-.42-.47-.28-.3-.62-.66-1.04-1.1-1.48-1.53-3.93-4-6.87-6.94-2.86-2.86-6.18-6.16-9.44-9.4l-6.52,6.58c4.23,4.19,8.53,8.47,11.81,11.77,1.67,1.68,3.08,3.11,4.07,4.12.41.42.74.77.98,1.02l.04.04.02.06.05.1,1.94,1.94a15.741,15.741,0,0,0,22.27.01l.62-.81V77a15.746,15.746,0,0,0,2.55-3.84c.11-.23.21-.47.31-.71a15.864,15.864,0,0,0,0-11.86Z" fill="#f7c56b"/>
    <path id="Path_221" data-name="Path 221" d="M20.35,69.27A6.524,6.524,0,0,1,18.2,70.7a6.493,6.493,0,0,1-4.9,0,6.334,6.334,0,0,1-2.14-1.43h0v-.01h0c-.13-.13-.24-.26-.34-.38a6.389,6.389,0,0,1-1.07-1.75h0a6.475,6.475,0,0,1-.47-2.42h0v-.02h0a6.638,6.638,0,0,1,.33-2.03h0a4.139,4.139,0,0,1,.15-.41h0a4.9,4.9,0,0,1,.24-.52h0l.02-.05h0a6.493,6.493,0,0,1,1.16-1.58h0a6.588,6.588,0,0,1,2.14-1.43h0a6.493,6.493,0,0,1,4.9,0h0a6.334,6.334,0,0,1,2.14,1.43h0l1.11,1.11h.01l.05.07c.15.17.27.31.42.47h0c.28.3.62.66,1.04,1.1,1.48,1.53,3.93,4,6.87,6.94,2.86,2.86,6.18,6.16,9.44,9.4l6.52-6.58c-4.23-4.19-8.53-8.47-11.81-11.77-1.67-1.68-3.08-3.11-4.07-4.12-.41-.42-.74-.77-.98-1.02l-.04-.04-.02-.06-.05-.1-1.94-1.94a15.742,15.742,0,0,0-22.28,0h0q-.39.39-.75.81c-.23.27-.46.55-.67.83a15.584,15.584,0,0,0-2.04,3.58A15.221,15.221,0,0,0,0,64.68a15.8,15.8,0,0,0,1.15,5.93,16.022,16.022,0,0,0,2.27,3.88h0c.07.08.13.16.2.24l-.04-.05.04.05q.33.39.69.78c.11.11.2.22.3.31h0a15.742,15.742,0,0,0,22.28,0l1.33-1.33,1.99-1.99-6.55-6.55-1.99,1.99-1.33,1.33Z" fill="#f7c56b"/>
    <rect id="Rectangle_54" data-name="Rectangle 54" width="30.4" height="9.26" transform="translate(32.495 56.981) rotate(-45)" fill="#f7c56b"/>
  </g>
  <path id="Path_222" data-name="Path 222" d="M67.25,116.02a5.47,5.47,0,1,1-5.47-5.47A5.471,5.471,0,0,1,67.25,116.02Z" fill="#f7c56b"/>
  <path id="Path_223" data-name="Path 223" d="M64.57,127.33a2.79,2.79,0,1,1-2.79-2.79,2.791,2.791,0,0,1,2.79,2.79Z" fill="#f7c56b"/>
  <circle id="Ellipse_4" data-name="Ellipse 4" cx="2.79" cy="2.79" r="2.79" transform="translate(58.99 0)" fill="#f7c56b"/>
  <path id="Path_224" data-name="Path 224" d="M67.25,15.21a5.47,5.47,0,1,1-5.47-5.47,5.471,5.471,0,0,1,5.47,5.47Z" fill="#f7c56b"/>
  <path id="Path_225" data-name="Path 225" d="M61.78,133.73a9.728,9.728,0,0,0-9.73,9.73H71.52a9.728,9.728,0,0,0-9.73-9.73Z" fill="#f7c56b"/>
  <g id="Group_197" data-name="Group 197">
    <rect id="Rectangle_55" data-name="Rectangle 55" width="4.14" height="62.14" transform="translate(52.05 147.08)" fill="#f7c56b"/>
    <rect id="Rectangle_56" data-name="Rectangle 56" width="4.14" height="62.14" transform="translate(59.71 147.08)" fill="#f7c56b"/>
    <rect id="Rectangle_57" data-name="Rectangle 57" width="4.14" height="62.14" transform="translate(67.37 147.08)" fill="#f7c56b"/>
  </g>
</svg>
