<svg xmlns="http://www.w3.org/2000/svg" width="62.32" height="700.32" viewBox="0 0 62.32 700.32">
  <g id="Side_Design" data-name="Side Design" transform="translate(-25.256 -4101.98)">
    <g id="Group_73" data-name="Group 73" transform="translate(-380.184 3835.01)">
      <path id="Path_129" data-name="Path 129" d="M436.6,298.13a15.326,15.326,0,0,1,15.33-15.33,15.33,15.33,0,1,0-30.66,0A15.326,15.326,0,0,1,436.6,298.13Z" fill="none" stroke="#db3130" stroke-miterlimit="10" stroke-width="1"/>
      <g id="Group_69" data-name="Group 69">
        <path id="Path_130" data-name="Path 130" d="M439.07,282.86a2.47,2.47,0,1,1-2.47-2.47A2.475,2.475,0,0,1,439.07,282.86Z" fill="none" stroke="#db3130" stroke-miterlimit="10" stroke-width="1"/>
        <path id="Path_131" data-name="Path 131" d="M430.92,286.22v-3.36a5.68,5.68,0,0,1,11.36,0v3.36" fill="none" stroke="#db3130" stroke-miterlimit="10" stroke-width="1"/>
        <path id="Path_132" data-name="Path 132" d="M427.71,284.31v-1.45a8.885,8.885,0,1,1,17.77,0v1.45" fill="none" stroke="#db3130" stroke-miterlimit="10" stroke-width="1"/>
        <path id="Path_133" data-name="Path 133" d="M424.51,282.86a12.09,12.09,0,1,1,24.18,0" fill="none" stroke="#db3130" stroke-miterlimit="10" stroke-width="1"/>
      </g>
      <line id="Line_33" data-name="Line 33" y2="12.8" transform="translate(436.6 285.33)" fill="none" stroke="#db3130" stroke-miterlimit="10" stroke-width="1"/>
      <path id="Path_134" data-name="Path 134" d="M436.6,298.13a15.326,15.326,0,0,1-15.33-15.33,15.33,15.33,0,0,0,0,30.66A15.326,15.326,0,0,1,436.6,298.13Z" fill="none" stroke="#db3130" stroke-miterlimit="10" stroke-width="1"/>
      <g id="Group_70" data-name="Group 70">
        <path id="Path_135" data-name="Path 135" d="M421.33,295.66a2.47,2.47,0,1,1-2.47,2.47A2.469,2.469,0,0,1,421.33,295.66Z" fill="none" stroke="#db3130" stroke-miterlimit="10" stroke-width="1"/>
        <path id="Path_136" data-name="Path 136" d="M424.69,303.81h-3.36a5.68,5.68,0,1,1,0-11.36h3.36" fill="none" stroke="#db3130" stroke-miterlimit="10" stroke-width="1"/>
        <path id="Path_137" data-name="Path 137" d="M422.78,307.02h-1.45a8.885,8.885,0,0,1,0-17.77h1.45" fill="none" stroke="#db3130" stroke-miterlimit="10" stroke-width="1"/>
        <path id="Path_138" data-name="Path 138" d="M421.33,310.22a12.09,12.09,0,0,1,0-24.18" fill="none" stroke="#db3130" stroke-miterlimit="10" stroke-width="1"/>
      </g>
      <line id="Line_34" data-name="Line 34" x2="12.8" transform="translate(423.8 298.13)" fill="none" stroke="#db3130" stroke-miterlimit="10" stroke-width="1"/>
      <path id="Path_139" data-name="Path 139" d="M436.6,298.13a15.332,15.332,0,0,1-15.33,15.33,15.33,15.33,0,0,0,30.66,0A15.326,15.326,0,0,1,436.6,298.13Z" fill="none" stroke="#db3130" stroke-miterlimit="10" stroke-width="1"/>
      <g id="Group_71" data-name="Group 71">
        <path id="Path_140" data-name="Path 140" d="M434.13,313.4a2.47,2.47,0,1,1,2.47,2.47A2.475,2.475,0,0,1,434.13,313.4Z" fill="none" stroke="#db3130" stroke-miterlimit="10" stroke-width="1"/>
        <path id="Path_141" data-name="Path 141" d="M442.28,310.04v3.36a5.68,5.68,0,0,1-11.36,0v-3.36" fill="none" stroke="#db3130" stroke-miterlimit="10" stroke-width="1"/>
        <path id="Path_142" data-name="Path 142" d="M445.49,311.95v1.45a8.885,8.885,0,1,1-17.77,0v-1.45" fill="none" stroke="#db3130" stroke-miterlimit="10" stroke-width="1"/>
        <path id="Path_143" data-name="Path 143" d="M448.69,313.4a12.09,12.09,0,1,1-24.18,0" fill="none" stroke="#db3130" stroke-miterlimit="10" stroke-width="1"/>
      </g>
      <line id="Line_35" data-name="Line 35" y1="12.8" transform="translate(436.6 298.13)" fill="none" stroke="#db3130" stroke-miterlimit="10" stroke-width="1"/>
      <path id="Path_144" data-name="Path 144" d="M436.6,298.13a15.326,15.326,0,0,1,15.33,15.33,15.33,15.33,0,1,0,0-30.66A15.332,15.332,0,0,1,436.6,298.13Z" fill="none" stroke="#db3130" stroke-miterlimit="10" stroke-width="1"/>
      <g id="Group_72" data-name="Group 72">
        <path id="Path_145" data-name="Path 145" d="M451.87,300.6a2.47,2.47,0,1,1,2.47-2.47A2.475,2.475,0,0,1,451.87,300.6Z" fill="none" stroke="#db3130" stroke-miterlimit="10" stroke-width="1"/>
        <path id="Path_146" data-name="Path 146" d="M448.51,292.45h3.36a5.68,5.68,0,0,1,0,11.36h-3.36" fill="none" stroke="#db3130" stroke-miterlimit="10" stroke-width="1"/>
        <path id="Path_147" data-name="Path 147" d="M450.42,289.24h1.45a8.885,8.885,0,1,1,0,17.77h-1.45" fill="none" stroke="#db3130" stroke-miterlimit="10" stroke-width="1"/>
        <path id="Path_148" data-name="Path 148" d="M451.87,286.04a12.09,12.09,0,0,1,0,24.18" fill="none" stroke="#db3130" stroke-miterlimit="10" stroke-width="1"/>
      </g>
      <line id="Line_36" data-name="Line 36" x1="12.8" transform="translate(436.6 298.13)" fill="none" stroke="#db3130" stroke-miterlimit="10" stroke-width="1"/>
    </g>
    <g id="Group_227" data-name="Group 227" transform="translate(-380.184 4154.009)">
      <path id="Path_129-2" data-name="Path 129" d="M436.6,298.13a15.326,15.326,0,0,1,15.33-15.33,15.33,15.33,0,1,0-30.66,0A15.326,15.326,0,0,1,436.6,298.13Z" fill="none" stroke="#db3130" stroke-miterlimit="10" stroke-width="1"/>
      <g id="Group_69-2" data-name="Group 69">
        <path id="Path_130-2" data-name="Path 130" d="M439.07,282.86a2.47,2.47,0,1,1-2.47-2.47A2.475,2.475,0,0,1,439.07,282.86Z" fill="none" stroke="#db3130" stroke-miterlimit="10" stroke-width="1"/>
        <path id="Path_131-2" data-name="Path 131" d="M430.92,286.22v-3.36a5.68,5.68,0,0,1,11.36,0v3.36" fill="none" stroke="#db3130" stroke-miterlimit="10" stroke-width="1"/>
        <path id="Path_132-2" data-name="Path 132" d="M427.71,284.31v-1.45a8.885,8.885,0,1,1,17.77,0v1.45" fill="none" stroke="#db3130" stroke-miterlimit="10" stroke-width="1"/>
        <path id="Path_133-2" data-name="Path 133" d="M424.51,282.86a12.09,12.09,0,1,1,24.18,0" fill="none" stroke="#db3130" stroke-miterlimit="10" stroke-width="1"/>
      </g>
      <line id="Line_33-2" data-name="Line 33" y2="12.8" transform="translate(436.6 285.33)" fill="none" stroke="#db3130" stroke-miterlimit="10" stroke-width="1"/>
      <path id="Path_134-2" data-name="Path 134" d="M436.6,298.13a15.326,15.326,0,0,1-15.33-15.33,15.33,15.33,0,0,0,0,30.66A15.326,15.326,0,0,1,436.6,298.13Z" fill="none" stroke="#db3130" stroke-miterlimit="10" stroke-width="1"/>
      <g id="Group_70-2" data-name="Group 70">
        <path id="Path_135-2" data-name="Path 135" d="M421.33,295.66a2.47,2.47,0,1,1-2.47,2.47A2.469,2.469,0,0,1,421.33,295.66Z" fill="none" stroke="#db3130" stroke-miterlimit="10" stroke-width="1"/>
        <path id="Path_136-2" data-name="Path 136" d="M424.69,303.81h-3.36a5.68,5.68,0,1,1,0-11.36h3.36" fill="none" stroke="#db3130" stroke-miterlimit="10" stroke-width="1"/>
        <path id="Path_137-2" data-name="Path 137" d="M422.78,307.02h-1.45a8.885,8.885,0,0,1,0-17.77h1.45" fill="none" stroke="#db3130" stroke-miterlimit="10" stroke-width="1"/>
        <path id="Path_138-2" data-name="Path 138" d="M421.33,310.22a12.09,12.09,0,0,1,0-24.18" fill="none" stroke="#db3130" stroke-miterlimit="10" stroke-width="1"/>
      </g>
      <line id="Line_34-2" data-name="Line 34" x2="12.8" transform="translate(423.8 298.13)" fill="none" stroke="#db3130" stroke-miterlimit="10" stroke-width="1"/>
      <path id="Path_139-2" data-name="Path 139" d="M436.6,298.13a15.332,15.332,0,0,1-15.33,15.33,15.33,15.33,0,0,0,30.66,0A15.326,15.326,0,0,1,436.6,298.13Z" fill="none" stroke="#db3130" stroke-miterlimit="10" stroke-width="1"/>
      <g id="Group_71-2" data-name="Group 71">
        <path id="Path_140-2" data-name="Path 140" d="M434.13,313.4a2.47,2.47,0,1,1,2.47,2.47A2.475,2.475,0,0,1,434.13,313.4Z" fill="none" stroke="#db3130" stroke-miterlimit="10" stroke-width="1"/>
        <path id="Path_141-2" data-name="Path 141" d="M442.28,310.04v3.36a5.68,5.68,0,0,1-11.36,0v-3.36" fill="none" stroke="#db3130" stroke-miterlimit="10" stroke-width="1"/>
        <path id="Path_142-2" data-name="Path 142" d="M445.49,311.95v1.45a8.885,8.885,0,1,1-17.77,0v-1.45" fill="none" stroke="#db3130" stroke-miterlimit="10" stroke-width="1"/>
        <path id="Path_143-2" data-name="Path 143" d="M448.69,313.4a12.09,12.09,0,1,1-24.18,0" fill="none" stroke="#db3130" stroke-miterlimit="10" stroke-width="1"/>
      </g>
      <line id="Line_35-2" data-name="Line 35" y1="12.8" transform="translate(436.6 298.13)" fill="none" stroke="#db3130" stroke-miterlimit="10" stroke-width="1"/>
      <path id="Path_144-2" data-name="Path 144" d="M436.6,298.13a15.326,15.326,0,0,1,15.33,15.33,15.33,15.33,0,1,0,0-30.66A15.332,15.332,0,0,1,436.6,298.13Z" fill="none" stroke="#db3130" stroke-miterlimit="10" stroke-width="1"/>
      <g id="Group_72-2" data-name="Group 72">
        <path id="Path_145-2" data-name="Path 145" d="M451.87,300.6a2.47,2.47,0,1,1,2.47-2.47A2.475,2.475,0,0,1,451.87,300.6Z" fill="none" stroke="#db3130" stroke-miterlimit="10" stroke-width="1"/>
        <path id="Path_146-2" data-name="Path 146" d="M448.51,292.45h3.36a5.68,5.68,0,0,1,0,11.36h-3.36" fill="none" stroke="#db3130" stroke-miterlimit="10" stroke-width="1"/>
        <path id="Path_147-2" data-name="Path 147" d="M450.42,289.24h1.45a8.885,8.885,0,1,1,0,17.77h-1.45" fill="none" stroke="#db3130" stroke-miterlimit="10" stroke-width="1"/>
        <path id="Path_148-2" data-name="Path 148" d="M451.87,286.04a12.09,12.09,0,0,1,0,24.18" fill="none" stroke="#db3130" stroke-miterlimit="10" stroke-width="1"/>
      </g>
      <line id="Line_36-2" data-name="Line 36" x1="12.8" transform="translate(436.6 298.13)" fill="none" stroke="#db3130" stroke-miterlimit="10" stroke-width="1"/>
    </g>
    <g id="Group_223" data-name="Group 223" transform="translate(-380.184 3941.01)">
      <path id="Path_129-3" data-name="Path 129" d="M436.6,298.13a15.326,15.326,0,0,1,15.33-15.33,15.33,15.33,0,1,0-30.66,0A15.326,15.326,0,0,1,436.6,298.13Z" fill="none" stroke="#db3130" stroke-miterlimit="10" stroke-width="1"/>
      <g id="Group_69-3" data-name="Group 69">
        <path id="Path_130-3" data-name="Path 130" d="M439.07,282.86a2.47,2.47,0,1,1-2.47-2.47A2.475,2.475,0,0,1,439.07,282.86Z" fill="none" stroke="#db3130" stroke-miterlimit="10" stroke-width="1"/>
        <path id="Path_131-3" data-name="Path 131" d="M430.92,286.22v-3.36a5.68,5.68,0,0,1,11.36,0v3.36" fill="none" stroke="#db3130" stroke-miterlimit="10" stroke-width="1"/>
        <path id="Path_132-3" data-name="Path 132" d="M427.71,284.31v-1.45a8.885,8.885,0,1,1,17.77,0v1.45" fill="none" stroke="#db3130" stroke-miterlimit="10" stroke-width="1"/>
        <path id="Path_133-3" data-name="Path 133" d="M424.51,282.86a12.09,12.09,0,1,1,24.18,0" fill="none" stroke="#db3130" stroke-miterlimit="10" stroke-width="1"/>
      </g>
      <line id="Line_33-3" data-name="Line 33" y2="12.8" transform="translate(436.6 285.33)" fill="none" stroke="#db3130" stroke-miterlimit="10" stroke-width="1"/>
      <path id="Path_134-3" data-name="Path 134" d="M436.6,298.13a15.326,15.326,0,0,1-15.33-15.33,15.33,15.33,0,0,0,0,30.66A15.326,15.326,0,0,1,436.6,298.13Z" fill="none" stroke="#db3130" stroke-miterlimit="10" stroke-width="1"/>
      <g id="Group_70-3" data-name="Group 70">
        <path id="Path_135-3" data-name="Path 135" d="M421.33,295.66a2.47,2.47,0,1,1-2.47,2.47A2.469,2.469,0,0,1,421.33,295.66Z" fill="none" stroke="#db3130" stroke-miterlimit="10" stroke-width="1"/>
        <path id="Path_136-3" data-name="Path 136" d="M424.69,303.81h-3.36a5.68,5.68,0,1,1,0-11.36h3.36" fill="none" stroke="#db3130" stroke-miterlimit="10" stroke-width="1"/>
        <path id="Path_137-3" data-name="Path 137" d="M422.78,307.02h-1.45a8.885,8.885,0,0,1,0-17.77h1.45" fill="none" stroke="#db3130" stroke-miterlimit="10" stroke-width="1"/>
        <path id="Path_138-3" data-name="Path 138" d="M421.33,310.22a12.09,12.09,0,0,1,0-24.18" fill="none" stroke="#db3130" stroke-miterlimit="10" stroke-width="1"/>
      </g>
      <line id="Line_34-3" data-name="Line 34" x2="12.8" transform="translate(423.8 298.13)" fill="none" stroke="#db3130" stroke-miterlimit="10" stroke-width="1"/>
      <path id="Path_139-3" data-name="Path 139" d="M436.6,298.13a15.332,15.332,0,0,1-15.33,15.33,15.33,15.33,0,0,0,30.66,0A15.326,15.326,0,0,1,436.6,298.13Z" fill="none" stroke="#db3130" stroke-miterlimit="10" stroke-width="1"/>
      <g id="Group_71-3" data-name="Group 71">
        <path id="Path_140-3" data-name="Path 140" d="M434.13,313.4a2.47,2.47,0,1,1,2.47,2.47A2.475,2.475,0,0,1,434.13,313.4Z" fill="none" stroke="#db3130" stroke-miterlimit="10" stroke-width="1"/>
        <path id="Path_141-3" data-name="Path 141" d="M442.28,310.04v3.36a5.68,5.68,0,0,1-11.36,0v-3.36" fill="none" stroke="#db3130" stroke-miterlimit="10" stroke-width="1"/>
        <path id="Path_142-3" data-name="Path 142" d="M445.49,311.95v1.45a8.885,8.885,0,1,1-17.77,0v-1.45" fill="none" stroke="#db3130" stroke-miterlimit="10" stroke-width="1"/>
        <path id="Path_143-3" data-name="Path 143" d="M448.69,313.4a12.09,12.09,0,1,1-24.18,0" fill="none" stroke="#db3130" stroke-miterlimit="10" stroke-width="1"/>
      </g>
      <line id="Line_35-3" data-name="Line 35" y1="12.8" transform="translate(436.6 298.13)" fill="none" stroke="#db3130" stroke-miterlimit="10" stroke-width="1"/>
      <path id="Path_144-3" data-name="Path 144" d="M436.6,298.13a15.326,15.326,0,0,1,15.33,15.33,15.33,15.33,0,1,0,0-30.66A15.332,15.332,0,0,1,436.6,298.13Z" fill="none" stroke="#db3130" stroke-miterlimit="10" stroke-width="1"/>
      <g id="Group_72-3" data-name="Group 72">
        <path id="Path_145-3" data-name="Path 145" d="M451.87,300.6a2.47,2.47,0,1,1,2.47-2.47A2.475,2.475,0,0,1,451.87,300.6Z" fill="none" stroke="#db3130" stroke-miterlimit="10" stroke-width="1"/>
        <path id="Path_146-3" data-name="Path 146" d="M448.51,292.45h3.36a5.68,5.68,0,0,1,0,11.36h-3.36" fill="none" stroke="#db3130" stroke-miterlimit="10" stroke-width="1"/>
        <path id="Path_147-3" data-name="Path 147" d="M450.42,289.24h1.45a8.885,8.885,0,1,1,0,17.77h-1.45" fill="none" stroke="#db3130" stroke-miterlimit="10" stroke-width="1"/>
        <path id="Path_148-3" data-name="Path 148" d="M451.87,286.04a12.09,12.09,0,0,1,0,24.18" fill="none" stroke="#db3130" stroke-miterlimit="10" stroke-width="1"/>
      </g>
      <line id="Line_36-3" data-name="Line 36" x1="12.8" transform="translate(436.6 298.13)" fill="none" stroke="#db3130" stroke-miterlimit="10" stroke-width="1"/>
    </g>
    <g id="Group_226" data-name="Group 226" transform="translate(-380.184 4260.009)">
      <path id="Path_129-4" data-name="Path 129" d="M436.6,298.13a15.326,15.326,0,0,1,15.33-15.33,15.33,15.33,0,1,0-30.66,0A15.326,15.326,0,0,1,436.6,298.13Z" fill="none" stroke="#db3130" stroke-miterlimit="10" stroke-width="1"/>
      <g id="Group_69-4" data-name="Group 69">
        <path id="Path_130-4" data-name="Path 130" d="M439.07,282.86a2.47,2.47,0,1,1-2.47-2.47A2.475,2.475,0,0,1,439.07,282.86Z" fill="none" stroke="#db3130" stroke-miterlimit="10" stroke-width="1"/>
        <path id="Path_131-4" data-name="Path 131" d="M430.92,286.22v-3.36a5.68,5.68,0,0,1,11.36,0v3.36" fill="none" stroke="#db3130" stroke-miterlimit="10" stroke-width="1"/>
        <path id="Path_132-4" data-name="Path 132" d="M427.71,284.31v-1.45a8.885,8.885,0,1,1,17.77,0v1.45" fill="none" stroke="#db3130" stroke-miterlimit="10" stroke-width="1"/>
        <path id="Path_133-4" data-name="Path 133" d="M424.51,282.86a12.09,12.09,0,1,1,24.18,0" fill="none" stroke="#db3130" stroke-miterlimit="10" stroke-width="1"/>
      </g>
      <line id="Line_33-4" data-name="Line 33" y2="12.8" transform="translate(436.6 285.33)" fill="none" stroke="#db3130" stroke-miterlimit="10" stroke-width="1"/>
      <path id="Path_134-4" data-name="Path 134" d="M436.6,298.13a15.326,15.326,0,0,1-15.33-15.33,15.33,15.33,0,0,0,0,30.66A15.326,15.326,0,0,1,436.6,298.13Z" fill="none" stroke="#db3130" stroke-miterlimit="10" stroke-width="1"/>
      <g id="Group_70-4" data-name="Group 70">
        <path id="Path_135-4" data-name="Path 135" d="M421.33,295.66a2.47,2.47,0,1,1-2.47,2.47A2.469,2.469,0,0,1,421.33,295.66Z" fill="none" stroke="#db3130" stroke-miterlimit="10" stroke-width="1"/>
        <path id="Path_136-4" data-name="Path 136" d="M424.69,303.81h-3.36a5.68,5.68,0,1,1,0-11.36h3.36" fill="none" stroke="#db3130" stroke-miterlimit="10" stroke-width="1"/>
        <path id="Path_137-4" data-name="Path 137" d="M422.78,307.02h-1.45a8.885,8.885,0,0,1,0-17.77h1.45" fill="none" stroke="#db3130" stroke-miterlimit="10" stroke-width="1"/>
        <path id="Path_138-4" data-name="Path 138" d="M421.33,310.22a12.09,12.09,0,0,1,0-24.18" fill="none" stroke="#db3130" stroke-miterlimit="10" stroke-width="1"/>
      </g>
      <line id="Line_34-4" data-name="Line 34" x2="12.8" transform="translate(423.8 298.13)" fill="none" stroke="#db3130" stroke-miterlimit="10" stroke-width="1"/>
      <path id="Path_139-4" data-name="Path 139" d="M436.6,298.13a15.332,15.332,0,0,1-15.33,15.33,15.33,15.33,0,0,0,30.66,0A15.326,15.326,0,0,1,436.6,298.13Z" fill="none" stroke="#db3130" stroke-miterlimit="10" stroke-width="1"/>
      <g id="Group_71-4" data-name="Group 71">
        <path id="Path_140-4" data-name="Path 140" d="M434.13,313.4a2.47,2.47,0,1,1,2.47,2.47A2.475,2.475,0,0,1,434.13,313.4Z" fill="none" stroke="#db3130" stroke-miterlimit="10" stroke-width="1"/>
        <path id="Path_141-4" data-name="Path 141" d="M442.28,310.04v3.36a5.68,5.68,0,0,1-11.36,0v-3.36" fill="none" stroke="#db3130" stroke-miterlimit="10" stroke-width="1"/>
        <path id="Path_142-4" data-name="Path 142" d="M445.49,311.95v1.45a8.885,8.885,0,1,1-17.77,0v-1.45" fill="none" stroke="#db3130" stroke-miterlimit="10" stroke-width="1"/>
        <path id="Path_143-4" data-name="Path 143" d="M448.69,313.4a12.09,12.09,0,1,1-24.18,0" fill="none" stroke="#db3130" stroke-miterlimit="10" stroke-width="1"/>
      </g>
      <line id="Line_35-4" data-name="Line 35" y1="12.8" transform="translate(436.6 298.13)" fill="none" stroke="#db3130" stroke-miterlimit="10" stroke-width="1"/>
      <path id="Path_144-4" data-name="Path 144" d="M436.6,298.13a15.326,15.326,0,0,1,15.33,15.33,15.33,15.33,0,1,0,0-30.66A15.332,15.332,0,0,1,436.6,298.13Z" fill="none" stroke="#db3130" stroke-miterlimit="10" stroke-width="1"/>
      <g id="Group_72-4" data-name="Group 72">
        <path id="Path_145-4" data-name="Path 145" d="M451.87,300.6a2.47,2.47,0,1,1,2.47-2.47A2.475,2.475,0,0,1,451.87,300.6Z" fill="none" stroke="#db3130" stroke-miterlimit="10" stroke-width="1"/>
        <path id="Path_146-4" data-name="Path 146" d="M448.51,292.45h3.36a5.68,5.68,0,0,1,0,11.36h-3.36" fill="none" stroke="#db3130" stroke-miterlimit="10" stroke-width="1"/>
        <path id="Path_147-4" data-name="Path 147" d="M450.42,289.24h1.45a8.885,8.885,0,1,1,0,17.77h-1.45" fill="none" stroke="#db3130" stroke-miterlimit="10" stroke-width="1"/>
        <path id="Path_148-4" data-name="Path 148" d="M451.87,286.04a12.09,12.09,0,0,1,0,24.18" fill="none" stroke="#db3130" stroke-miterlimit="10" stroke-width="1"/>
      </g>
      <line id="Line_36-4" data-name="Line 36" x1="12.8" transform="translate(436.6 298.13)" fill="none" stroke="#db3130" stroke-miterlimit="10" stroke-width="1"/>
    </g>
    <g id="Group_224" data-name="Group 224" transform="translate(-380.184 4047.01)">
      <path id="Path_129-5" data-name="Path 129" d="M436.6,298.13a15.326,15.326,0,0,1,15.33-15.33,15.33,15.33,0,1,0-30.66,0A15.326,15.326,0,0,1,436.6,298.13Z" fill="none" stroke="#db3130" stroke-miterlimit="10" stroke-width="1"/>
      <g id="Group_69-5" data-name="Group 69">
        <path id="Path_130-5" data-name="Path 130" d="M439.07,282.86a2.47,2.47,0,1,1-2.47-2.47A2.475,2.475,0,0,1,439.07,282.86Z" fill="none" stroke="#db3130" stroke-miterlimit="10" stroke-width="1"/>
        <path id="Path_131-5" data-name="Path 131" d="M430.92,286.22v-3.36a5.68,5.68,0,0,1,11.36,0v3.36" fill="none" stroke="#db3130" stroke-miterlimit="10" stroke-width="1"/>
        <path id="Path_132-5" data-name="Path 132" d="M427.71,284.31v-1.45a8.885,8.885,0,1,1,17.77,0v1.45" fill="none" stroke="#db3130" stroke-miterlimit="10" stroke-width="1"/>
        <path id="Path_133-5" data-name="Path 133" d="M424.51,282.86a12.09,12.09,0,1,1,24.18,0" fill="none" stroke="#db3130" stroke-miterlimit="10" stroke-width="1"/>
      </g>
      <line id="Line_33-5" data-name="Line 33" y2="12.8" transform="translate(436.6 285.33)" fill="none" stroke="#db3130" stroke-miterlimit="10" stroke-width="1"/>
      <path id="Path_134-5" data-name="Path 134" d="M436.6,298.13a15.326,15.326,0,0,1-15.33-15.33,15.33,15.33,0,0,0,0,30.66A15.326,15.326,0,0,1,436.6,298.13Z" fill="none" stroke="#db3130" stroke-miterlimit="10" stroke-width="1"/>
      <g id="Group_70-5" data-name="Group 70">
        <path id="Path_135-5" data-name="Path 135" d="M421.33,295.66a2.47,2.47,0,1,1-2.47,2.47A2.469,2.469,0,0,1,421.33,295.66Z" fill="none" stroke="#db3130" stroke-miterlimit="10" stroke-width="1"/>
        <path id="Path_136-5" data-name="Path 136" d="M424.69,303.81h-3.36a5.68,5.68,0,1,1,0-11.36h3.36" fill="none" stroke="#db3130" stroke-miterlimit="10" stroke-width="1"/>
        <path id="Path_137-5" data-name="Path 137" d="M422.78,307.02h-1.45a8.885,8.885,0,0,1,0-17.77h1.45" fill="none" stroke="#db3130" stroke-miterlimit="10" stroke-width="1"/>
        <path id="Path_138-5" data-name="Path 138" d="M421.33,310.22a12.09,12.09,0,0,1,0-24.18" fill="none" stroke="#db3130" stroke-miterlimit="10" stroke-width="1"/>
      </g>
      <line id="Line_34-5" data-name="Line 34" x2="12.8" transform="translate(423.8 298.13)" fill="none" stroke="#db3130" stroke-miterlimit="10" stroke-width="1"/>
      <path id="Path_139-5" data-name="Path 139" d="M436.6,298.13a15.332,15.332,0,0,1-15.33,15.33,15.33,15.33,0,0,0,30.66,0A15.326,15.326,0,0,1,436.6,298.13Z" fill="none" stroke="#db3130" stroke-miterlimit="10" stroke-width="1"/>
      <g id="Group_71-5" data-name="Group 71">
        <path id="Path_140-5" data-name="Path 140" d="M434.13,313.4a2.47,2.47,0,1,1,2.47,2.47A2.475,2.475,0,0,1,434.13,313.4Z" fill="none" stroke="#db3130" stroke-miterlimit="10" stroke-width="1"/>
        <path id="Path_141-5" data-name="Path 141" d="M442.28,310.04v3.36a5.68,5.68,0,0,1-11.36,0v-3.36" fill="none" stroke="#db3130" stroke-miterlimit="10" stroke-width="1"/>
        <path id="Path_142-5" data-name="Path 142" d="M445.49,311.95v1.45a8.885,8.885,0,1,1-17.77,0v-1.45" fill="none" stroke="#db3130" stroke-miterlimit="10" stroke-width="1"/>
        <path id="Path_143-5" data-name="Path 143" d="M448.69,313.4a12.09,12.09,0,1,1-24.18,0" fill="none" stroke="#db3130" stroke-miterlimit="10" stroke-width="1"/>
      </g>
      <line id="Line_35-5" data-name="Line 35" y1="12.8" transform="translate(436.6 298.13)" fill="none" stroke="#db3130" stroke-miterlimit="10" stroke-width="1"/>
      <path id="Path_144-5" data-name="Path 144" d="M436.6,298.13a15.326,15.326,0,0,1,15.33,15.33,15.33,15.33,0,1,0,0-30.66A15.332,15.332,0,0,1,436.6,298.13Z" fill="none" stroke="#db3130" stroke-miterlimit="10" stroke-width="1"/>
      <g id="Group_72-5" data-name="Group 72">
        <path id="Path_145-5" data-name="Path 145" d="M451.87,300.6a2.47,2.47,0,1,1,2.47-2.47A2.475,2.475,0,0,1,451.87,300.6Z" fill="none" stroke="#db3130" stroke-miterlimit="10" stroke-width="1"/>
        <path id="Path_146-5" data-name="Path 146" d="M448.51,292.45h3.36a5.68,5.68,0,0,1,0,11.36h-3.36" fill="none" stroke="#db3130" stroke-miterlimit="10" stroke-width="1"/>
        <path id="Path_147-5" data-name="Path 147" d="M450.42,289.24h1.45a8.885,8.885,0,1,1,0,17.77h-1.45" fill="none" stroke="#db3130" stroke-miterlimit="10" stroke-width="1"/>
        <path id="Path_148-5" data-name="Path 148" d="M451.87,286.04a12.09,12.09,0,0,1,0,24.18" fill="none" stroke="#db3130" stroke-miterlimit="10" stroke-width="1"/>
      </g>
      <line id="Line_36-5" data-name="Line 36" x1="12.8" transform="translate(436.6 298.13)" fill="none" stroke="#db3130" stroke-miterlimit="10" stroke-width="1"/>
    </g>
    <g id="Group_225" data-name="Group 225" transform="translate(-380.184 4367.01)">
      <path id="Path_129-6" data-name="Path 129" d="M436.6,298.13a15.326,15.326,0,0,1,15.33-15.33,15.33,15.33,0,1,0-30.66,0A15.326,15.326,0,0,1,436.6,298.13Z" fill="none" stroke="#db3130" stroke-miterlimit="10" stroke-width="1"/>
      <g id="Group_69-6" data-name="Group 69">
        <path id="Path_130-6" data-name="Path 130" d="M439.07,282.86a2.47,2.47,0,1,1-2.47-2.47A2.475,2.475,0,0,1,439.07,282.86Z" fill="none" stroke="#db3130" stroke-miterlimit="10" stroke-width="1"/>
        <path id="Path_131-6" data-name="Path 131" d="M430.92,286.22v-3.36a5.68,5.68,0,0,1,11.36,0v3.36" fill="none" stroke="#db3130" stroke-miterlimit="10" stroke-width="1"/>
        <path id="Path_132-6" data-name="Path 132" d="M427.71,284.31v-1.45a8.885,8.885,0,1,1,17.77,0v1.45" fill="none" stroke="#db3130" stroke-miterlimit="10" stroke-width="1"/>
        <path id="Path_133-6" data-name="Path 133" d="M424.51,282.86a12.09,12.09,0,1,1,24.18,0" fill="none" stroke="#db3130" stroke-miterlimit="10" stroke-width="1"/>
      </g>
      <line id="Line_33-6" data-name="Line 33" y2="12.8" transform="translate(436.6 285.33)" fill="none" stroke="#db3130" stroke-miterlimit="10" stroke-width="1"/>
      <path id="Path_134-6" data-name="Path 134" d="M436.6,298.13a15.326,15.326,0,0,1-15.33-15.33,15.33,15.33,0,0,0,0,30.66A15.326,15.326,0,0,1,436.6,298.13Z" fill="none" stroke="#db3130" stroke-miterlimit="10" stroke-width="1"/>
      <g id="Group_70-6" data-name="Group 70">
        <path id="Path_135-6" data-name="Path 135" d="M421.33,295.66a2.47,2.47,0,1,1-2.47,2.47A2.469,2.469,0,0,1,421.33,295.66Z" fill="none" stroke="#db3130" stroke-miterlimit="10" stroke-width="1"/>
        <path id="Path_136-6" data-name="Path 136" d="M424.69,303.81h-3.36a5.68,5.68,0,1,1,0-11.36h3.36" fill="none" stroke="#db3130" stroke-miterlimit="10" stroke-width="1"/>
        <path id="Path_137-6" data-name="Path 137" d="M422.78,307.02h-1.45a8.885,8.885,0,0,1,0-17.77h1.45" fill="none" stroke="#db3130" stroke-miterlimit="10" stroke-width="1"/>
        <path id="Path_138-6" data-name="Path 138" d="M421.33,310.22a12.09,12.09,0,0,1,0-24.18" fill="none" stroke="#db3130" stroke-miterlimit="10" stroke-width="1"/>
      </g>
      <line id="Line_34-6" data-name="Line 34" x2="12.8" transform="translate(423.8 298.13)" fill="none" stroke="#db3130" stroke-miterlimit="10" stroke-width="1"/>
      <path id="Path_139-6" data-name="Path 139" d="M436.6,298.13a15.332,15.332,0,0,1-15.33,15.33,15.33,15.33,0,0,0,30.66,0A15.326,15.326,0,0,1,436.6,298.13Z" fill="none" stroke="#db3130" stroke-miterlimit="10" stroke-width="1"/>
      <g id="Group_71-6" data-name="Group 71">
        <path id="Path_140-6" data-name="Path 140" d="M434.13,313.4a2.47,2.47,0,1,1,2.47,2.47A2.475,2.475,0,0,1,434.13,313.4Z" fill="none" stroke="#db3130" stroke-miterlimit="10" stroke-width="1"/>
        <path id="Path_141-6" data-name="Path 141" d="M442.28,310.04v3.36a5.68,5.68,0,0,1-11.36,0v-3.36" fill="none" stroke="#db3130" stroke-miterlimit="10" stroke-width="1"/>
        <path id="Path_142-6" data-name="Path 142" d="M445.49,311.95v1.45a8.885,8.885,0,1,1-17.77,0v-1.45" fill="none" stroke="#db3130" stroke-miterlimit="10" stroke-width="1"/>
        <path id="Path_143-6" data-name="Path 143" d="M448.69,313.4a12.09,12.09,0,1,1-24.18,0" fill="none" stroke="#db3130" stroke-miterlimit="10" stroke-width="1"/>
      </g>
      <line id="Line_35-6" data-name="Line 35" y1="12.8" transform="translate(436.6 298.13)" fill="none" stroke="#db3130" stroke-miterlimit="10" stroke-width="1"/>
      <path id="Path_144-6" data-name="Path 144" d="M436.6,298.13a15.326,15.326,0,0,1,15.33,15.33,15.33,15.33,0,1,0,0-30.66A15.332,15.332,0,0,1,436.6,298.13Z" fill="none" stroke="#db3130" stroke-miterlimit="10" stroke-width="1"/>
      <g id="Group_72-6" data-name="Group 72">
        <path id="Path_145-6" data-name="Path 145" d="M451.87,300.6a2.47,2.47,0,1,1,2.47-2.47A2.475,2.475,0,0,1,451.87,300.6Z" fill="none" stroke="#db3130" stroke-miterlimit="10" stroke-width="1"/>
        <path id="Path_146-6" data-name="Path 146" d="M448.51,292.45h3.36a5.68,5.68,0,0,1,0,11.36h-3.36" fill="none" stroke="#db3130" stroke-miterlimit="10" stroke-width="1"/>
        <path id="Path_147-6" data-name="Path 147" d="M450.42,289.24h1.45a8.885,8.885,0,1,1,0,17.77h-1.45" fill="none" stroke="#db3130" stroke-miterlimit="10" stroke-width="1"/>
        <path id="Path_148-6" data-name="Path 148" d="M451.87,286.04a12.09,12.09,0,0,1,0,24.18" fill="none" stroke="#db3130" stroke-miterlimit="10" stroke-width="1"/>
      </g>
      <line id="Line_36-6" data-name="Line 36" x1="12.8" transform="translate(436.6 298.13)" fill="none" stroke="#db3130" stroke-miterlimit="10" stroke-width="1"/>
    </g>
    <g id="Group_228" data-name="Group 228" transform="translate(-380.184 4473.01)">
      <path id="Path_129-7" data-name="Path 129" d="M436.6,298.13a15.326,15.326,0,0,1,15.33-15.33,15.33,15.33,0,1,0-30.66,0A15.326,15.326,0,0,1,436.6,298.13Z" fill="none" stroke="#db3130" stroke-miterlimit="10" stroke-width="1"/>
      <g id="Group_69-7" data-name="Group 69">
        <path id="Path_130-7" data-name="Path 130" d="M439.07,282.86a2.47,2.47,0,1,1-2.47-2.47A2.475,2.475,0,0,1,439.07,282.86Z" fill="none" stroke="#db3130" stroke-miterlimit="10" stroke-width="1"/>
        <path id="Path_131-7" data-name="Path 131" d="M430.92,286.22v-3.36a5.68,5.68,0,0,1,11.36,0v3.36" fill="none" stroke="#db3130" stroke-miterlimit="10" stroke-width="1"/>
        <path id="Path_132-7" data-name="Path 132" d="M427.71,284.31v-1.45a8.885,8.885,0,1,1,17.77,0v1.45" fill="none" stroke="#db3130" stroke-miterlimit="10" stroke-width="1"/>
        <path id="Path_133-7" data-name="Path 133" d="M424.51,282.86a12.09,12.09,0,1,1,24.18,0" fill="none" stroke="#db3130" stroke-miterlimit="10" stroke-width="1"/>
      </g>
      <line id="Line_33-7" data-name="Line 33" y2="12.8" transform="translate(436.6 285.33)" fill="none" stroke="#db3130" stroke-miterlimit="10" stroke-width="1"/>
      <path id="Path_134-7" data-name="Path 134" d="M436.6,298.13a15.326,15.326,0,0,1-15.33-15.33,15.33,15.33,0,0,0,0,30.66A15.326,15.326,0,0,1,436.6,298.13Z" fill="none" stroke="#db3130" stroke-miterlimit="10" stroke-width="1"/>
      <g id="Group_70-7" data-name="Group 70">
        <path id="Path_135-7" data-name="Path 135" d="M421.33,295.66a2.47,2.47,0,1,1-2.47,2.47A2.469,2.469,0,0,1,421.33,295.66Z" fill="none" stroke="#db3130" stroke-miterlimit="10" stroke-width="1"/>
        <path id="Path_136-7" data-name="Path 136" d="M424.69,303.81h-3.36a5.68,5.68,0,1,1,0-11.36h3.36" fill="none" stroke="#db3130" stroke-miterlimit="10" stroke-width="1"/>
        <path id="Path_137-7" data-name="Path 137" d="M422.78,307.02h-1.45a8.885,8.885,0,0,1,0-17.77h1.45" fill="none" stroke="#db3130" stroke-miterlimit="10" stroke-width="1"/>
        <path id="Path_138-7" data-name="Path 138" d="M421.33,310.22a12.09,12.09,0,0,1,0-24.18" fill="none" stroke="#db3130" stroke-miterlimit="10" stroke-width="1"/>
      </g>
      <line id="Line_34-7" data-name="Line 34" x2="12.8" transform="translate(423.8 298.13)" fill="none" stroke="#db3130" stroke-miterlimit="10" stroke-width="1"/>
      <path id="Path_139-7" data-name="Path 139" d="M436.6,298.13a15.332,15.332,0,0,1-15.33,15.33,15.33,15.33,0,0,0,30.66,0A15.326,15.326,0,0,1,436.6,298.13Z" fill="none" stroke="#db3130" stroke-miterlimit="10" stroke-width="1"/>
      <g id="Group_71-7" data-name="Group 71">
        <path id="Path_140-7" data-name="Path 140" d="M434.13,313.4a2.47,2.47,0,1,1,2.47,2.47A2.475,2.475,0,0,1,434.13,313.4Z" fill="none" stroke="#db3130" stroke-miterlimit="10" stroke-width="1"/>
        <path id="Path_141-7" data-name="Path 141" d="M442.28,310.04v3.36a5.68,5.68,0,0,1-11.36,0v-3.36" fill="none" stroke="#db3130" stroke-miterlimit="10" stroke-width="1"/>
        <path id="Path_142-7" data-name="Path 142" d="M445.49,311.95v1.45a8.885,8.885,0,1,1-17.77,0v-1.45" fill="none" stroke="#db3130" stroke-miterlimit="10" stroke-width="1"/>
        <path id="Path_143-7" data-name="Path 143" d="M448.69,313.4a12.09,12.09,0,1,1-24.18,0" fill="none" stroke="#db3130" stroke-miterlimit="10" stroke-width="1"/>
      </g>
      <line id="Line_35-7" data-name="Line 35" y1="12.8" transform="translate(436.6 298.13)" fill="none" stroke="#db3130" stroke-miterlimit="10" stroke-width="1"/>
      <path id="Path_144-7" data-name="Path 144" d="M436.6,298.13a15.326,15.326,0,0,1,15.33,15.33,15.33,15.33,0,1,0,0-30.66A15.332,15.332,0,0,1,436.6,298.13Z" fill="none" stroke="#db3130" stroke-miterlimit="10" stroke-width="1"/>
      <g id="Group_72-7" data-name="Group 72">
        <path id="Path_145-7" data-name="Path 145" d="M451.87,300.6a2.47,2.47,0,1,1,2.47-2.47A2.475,2.475,0,0,1,451.87,300.6Z" fill="none" stroke="#db3130" stroke-miterlimit="10" stroke-width="1"/>
        <path id="Path_146-7" data-name="Path 146" d="M448.51,292.45h3.36a5.68,5.68,0,0,1,0,11.36h-3.36" fill="none" stroke="#db3130" stroke-miterlimit="10" stroke-width="1"/>
        <path id="Path_147-7" data-name="Path 147" d="M450.42,289.24h1.45a8.885,8.885,0,1,1,0,17.77h-1.45" fill="none" stroke="#db3130" stroke-miterlimit="10" stroke-width="1"/>
        <path id="Path_148-7" data-name="Path 148" d="M451.87,286.04a12.09,12.09,0,0,1,0,24.18" fill="none" stroke="#db3130" stroke-miterlimit="10" stroke-width="1"/>
      </g>
      <line id="Line_36-7" data-name="Line 36" x1="12.8" transform="translate(436.6 298.13)" fill="none" stroke="#db3130" stroke-miterlimit="10" stroke-width="1"/>
    </g>
  </g>
</svg>
